<svg xmlns="http://www.w3.org/2000/svg" width="123.348" height="39.778" viewBox="0 0 123.348 39.778"><defs><style>.a{fill:#FFFFFF;}.b{isolation:isolate;}</style></defs><g transform="translate(-322.175 -338.602)"><g transform="translate(322.175 338.602)"><path class="a" d="M341.127,344.058l-8.437-5.242a1.439,1.439,0,0,0-1.52.006l-8.287,5.238a1.421,1.421,0,0,0-.666,1.209v9.574a1.421,1.421,0,0,0,.674,1.214l8.287,5.166c.028.017.057.034.086.049v5.352a.668.668,0,0,0,1.336,0V361.28c.029-.015.056-.03.083-.047l8.437-5.17a1.44,1.44,0,0,0,.684-1.22v-9.568A1.425,1.425,0,0,0,341.127,344.058Zm-.659,10.782a.1.1,0,0,1-.046.081l-7.823,4.794v-9.058a1.645,1.645,0,1,0-1.336,0V359.7l-7.667-4.779a.094.094,0,0,1-.045-.081v-9.575a.093.093,0,0,1,.044-.08l8.287-5.238a.1.1,0,0,1,.1,0l8.437,5.242a.093.093,0,0,1,.045.081Z" transform="translate(-322.191 -338.602)"/><path class="a" d="M331.976,390.706a1.428,1.428,0,0,1-.787-.237l-8.37-5.509a1.427,1.427,0,0,1-.644-1.2V372.728a1.429,1.429,0,0,1,2.175-1.221l4.7,2.868a1.439,1.439,0,0,1,.684,1.221V380.2a.1.1,0,0,0,.042.08l2.144,1.424a.1.1,0,0,0,.108,0l2.152-1.541a.1.1,0,0,0,.04-.078v-4.623a1.438,1.438,0,0,1,.684-1.221l4.7-2.868a1.429,1.429,0,0,1,2.175,1.221v11.041a1.431,1.431,0,0,1-.632,1.187l-8.379,5.639h0A1.434,1.434,0,0,1,331.976,390.706Zm.426-.8-8.8-17.277a.091.091,0,0,0-.047.014.088.088,0,0,0-.048.083v11.04a.1.1,0,0,0,.043.08l8.37,5.51a.1.1,0,0,0,.106,0h0l8.382-5.643a.1.1,0,0,0,.042-.079V372.595a.1.1,0,0,0-.1-.1.092.092,0,0,0-.049.014l-4.7,2.868a.1.1,0,0,0-.045.081v4.623a1.435,1.435,0,0,1-.6,1.163l-2.152,1.541a1.438,1.438,0,0,1-1.625.029l-2.145-1.424a1.428,1.428,0,0,1-.64-1.192V375.6a.1.1,0,0,0-.045-.081l-4.7-2.868a.091.091,0,0,0-.05-.015Z" transform="translate(-322.175 -350.928)"/></g><g class="b" transform="translate(357.826 352.052)"><g class="b"><path class="a" d="M383.431,365.875c1.78.24,2.753,1.266,2.753,2.778,0,1.832-1.428,2.973-3.749,2.973H379.54V361.283h2.44c2.052,0,3.313.925,3.313,2.456a2.089,2.089,0,0,1-1.862,2.137Zm-2.566-3.539v3.044h1.184c1.168,0,1.878-.6,1.878-1.585,0-.95-.66-1.459-1.829-1.459Zm3.93,6.223c0-1.237-.945-1.973-2.47-1.973h-1.46v3.986h1.508C383.89,370.572,384.791,369.8,384.795,368.559Z" transform="translate(-379.54 -360.637)"/><path class="a" d="M399.847,366.095v7.278H398.8l-.175-1.1a3.067,3.067,0,0,1-2.6,1.295c-1.907,0-3.414-1.466-3.414-3.833s1.507-3.833,3.414-3.833a3.066,3.066,0,0,1,2.6,1.3l.172-1.106Zm-1.111,3.639a2.427,2.427,0,1,0-2.438,2.743A2.5,2.5,0,0,0,398.737,369.734Z" transform="translate(-384.49 -362.385)"/><path class="a" d="M414.249,360.243v10.988h-1.042l-.172-1.1a3.067,3.067,0,0,1-2.6,1.3c-1.907,0-3.414-1.466-3.414-3.833s1.506-3.833,3.414-3.833a3.07,3.07,0,0,1,2.542,1.218v-4.734Zm-1.111,7.35a2.427,2.427,0,1,0-2.438,2.743A2.5,2.5,0,0,0,413.138,367.593Z" transform="translate(-389.942 -360.243)"/><path class="a" d="M421.885,361.733a.9.9,0,1,1,.9.9A.9.9,0,0,1,421.885,361.733Zm.28,2.441H423.4v7.282h-1.237Z" transform="translate(-395.568 -360.467)"/><path class="a" d="M427.093,369.734a3.7,3.7,0,0,1,3.765-3.834,3.845,3.845,0,0,1,2.457.831l-.766.893a2.423,2.423,0,0,0-1.688-.632,2.758,2.758,0,0,0,0,5.484,2.42,2.42,0,0,0,1.688-.632l.766.893a3.847,3.847,0,0,1-2.457.83A3.7,3.7,0,0,1,427.093,369.734Z" transform="translate(-397.54 -362.384)"/><path class="a" d="M438.507,369.734a3.832,3.832,0,1,1,3.831,3.833A3.736,3.736,0,0,1,438.507,369.734Zm6.325,0a2.5,2.5,0,1,0-2.494,2.728A2.547,2.547,0,0,0,444.832,369.734Z" transform="translate(-401.86 -362.385)"/><path class="a" d="M459.982,366.281a5.216,5.216,0,0,1,5.385-5.389,5.482,5.482,0,0,1,3.194.965l-.718,1.066a3.9,3.9,0,0,0-2.475-.84,4.2,4.2,0,0,0,0,8.4,3.893,3.893,0,0,0,2.475-.838l.718,1.064a5.482,5.482,0,0,1-3.194.965A5.216,5.216,0,0,1,459.982,366.281Z" transform="translate(-409.989 -360.489)"/><path class="a" d="M476.544,360.243h1.273v10.988h-1.273Z" transform="translate(-416.258 -360.243)"/><path class="a" d="M481.354,369.734a3.832,3.832,0,1,1,3.831,3.833A3.735,3.735,0,0,1,481.354,369.734Zm6.325,0a2.5,2.5,0,1,0-2.494,2.728A2.547,2.547,0,0,0,487.68,369.734Z" transform="translate(-418.078 -362.385)"/><path class="a" d="M496.329,370.465v-4.251H497.6v4.253c0,1.314.672,2.112,1.851,2.112s1.852-.8,1.852-2.112v-4.253h1.273v4.251a3.127,3.127,0,1,1-6.25,0Z" transform="translate(-423.746 -362.503)"/><path class="a" d="M516.245,360.243v10.988H515.2l-.172-1.1a3.066,3.066,0,0,1-2.6,1.3c-1.908,0-3.414-1.466-3.414-3.833s1.506-3.833,3.414-3.833a3.07,3.07,0,0,1,2.542,1.218v-4.734Zm-1.111,7.35a2.427,2.427,0,1,0-2.438,2.743A2.5,2.5,0,0,0,515.134,367.593Z" transform="translate(-428.549 -360.243)"/></g></g></g></svg>
